# xmcd
#
# Track frame offsets:
#	150
#	18202
#	52538
#	90659
#	141266
#	172769
#	188492
#	206950
#	243373
#	260744
#	318660
#
# Disc length: 4318 seconds
#
# Revision: 1
# Processed by: cddbd v1.5PL3 Copyright (c) Steve Scherf et al.
# Submitted via: audiograbber 1.82.01
#
DISCID=8d10dc0b
DTITLE=Jimi Hendrix - "Villanova Junction" - Disc 2
DYEAR=1900
DGENRE=
TTITLE0=Jimi Hendrix - All Along The Watchtower
TTITLE1=Jimi Hendrix - Calling All Devil'S Children (Bust Version)
TTITLE2=Jimi Hendrix - Country Blues (Straight Mix)
TTITLE3=Jimi Hendrix - Astro Man Jam
TTITLE4=Jimi Hendrix - Electric Church Red House
TTITLE5=Jimi Hendrix - Ships Passing In The Night
TTITLE6=Jimi Hendrix - Villanova Junction Blues
TTITLE7=Jimi Hendrix - Hear My Train A Comin'
TTITLE8=Jimi Hendrix - Belly Button Window
TTITLE9=Jimi Hendrix - Three Little Bears - South Saturn Delta (Vocals Session)
TTITLE10=Jimi Hendrix - Stepping Stone
EXTD=
EXTT0=
EXTT1=
EXTT2=
EXTT3=
EXTT4=
EXTT5=
EXTT6=
EXTT7=
EXTT8=
EXTT9=
EXTT10=
PLAYORDER=
